<?xml version="1.0" encoding="utf-8"?>
<!-- Generator: Adobe Illustrator 24.1.2, SVG Export Plug-In . SVG Version: 6.00 Build 0)  -->
<svg version="1.1" id="Layer_1" xmlns="http://www.w3.org/2000/svg" xmlns:xlink="http://www.w3.org/1999/xlink" x="0px" y="0px"
	 viewBox="0 0 589.4 161.3" style="enable-background:new 0 0 589.4 161.3;" xml:space="preserve">
<style type="text/css">
	.st0{fill:#231F20;}
	.st1{fill:#F79410;}
	.st2{fill:#FF5F00;}
	.st3{fill:#EB001B;}
	.st4{fill:#F79E1B;}
	.st5{fill:#00579F;}
	.st6{fill:#FAA61A;}
</style>
<g>
	<g transform="translate(1565.7 -1106.8)">
		<g transform="matrix(3.1437 0 0 3.1437 -4835.7 -1027.6)">
			<g transform="matrix(1.25 0 0 -1.25 1102.5 727.74)">
				<path class="st0" d="M98.7-1.5v-0.1h0.1c0,0,0,0,0.1,0c0,0,0,0,0,0c0,0,0,0,0,0C98.8-1.5,98.8-1.5,98.7-1.5L98.7-1.5z M98.8-1.4
					c0.1,0,0.1,0,0.1,0c0,0,0-0.1,0-0.1c0,0,0-0.1,0-0.1c0,0-0.1,0-0.1,0l0.1-0.1h-0.1l-0.1,0.1h0v-0.1h-0.1v0.4H98.8z M98.7-1.9
					c0,0,0.1,0,0.1,0c0,0,0.1,0,0.1,0.1c0,0,0.1,0.1,0.1,0.1c0,0,0,0.1,0,0.1s0,0.1,0,0.1c0,0,0,0.1-0.1,0.1c0,0-0.1,0.1-0.1,0.1
					c0,0-0.1,0-0.1,0s-0.1,0-0.1,0c0,0-0.1,0-0.1-0.1c0,0-0.1-0.1-0.1-0.1c0,0,0-0.1,0-0.1s0-0.1,0-0.1c0,0,0-0.1,0.1-0.1
					c0,0,0.1-0.1,0.1-0.1C98.7-1.9,98.7-1.9,98.7-1.9 M98.7-1.2c0.1,0,0.1,0,0.2,0c0.1,0,0.1-0.1,0.1-0.1c0,0,0.1-0.1,0.1-0.1
					c0-0.1,0-0.1,0-0.2c0-0.1,0-0.1,0-0.2c0-0.1-0.1-0.1-0.1-0.1C99-1.9,99-2,98.9-2c-0.1,0-0.1,0-0.2,0c-0.1,0-0.1,0-0.2,0
					c-0.1,0-0.1,0.1-0.1,0.1c0,0-0.1,0.1-0.1,0.1c0,0.1,0,0.1,0,0.2c0,0.1,0,0.1,0,0.2c0,0.1,0.1,0.1,0.1,0.1c0,0,0.1,0.1,0.1,0.1
					C98.6-1.2,98.7-1.2,98.7-1.2 M58.8,0.4c0,0.8,0.5,1.4,1.3,1.4c0.8,0,1.3-0.6,1.3-1.4S60.9-1,60.1-1C59.3-1,58.8-0.4,58.8,0.4
					 M62.3,0.4v2.1h-0.9V2c-0.3,0.4-0.7,0.6-1.4,0.6c-1.2,0-2.1-0.9-2.1-2.2c0-1.3,0.9-2.2,2.1-2.2c0.6,0,1.1,0.2,1.4,0.6v-0.5h0.9
					V0.4z M93.7,0.4c0,0.8,0.5,1.4,1.3,1.4c0.8,0,1.3-0.6,1.3-1.4S95.8-1,95-1C94.2-1,93.7-0.4,93.7,0.4 M97.2,0.4v3.9h-0.9V2
					c-0.3,0.4-0.7,0.6-1.4,0.6c-1.2,0-2.1-0.9-2.1-2.2c0-1.3,0.9-2.2,2.1-2.2c0.6,0,1.1,0.2,1.4,0.6v-0.5h0.9V0.4z M73.8,1.8
					c0.6,0,1-0.4,1.1-1h-2.2C72.8,1.3,73.2,1.8,73.8,1.8 M73.9,2.6c-1.3,0-2.1-0.9-2.1-2.2c0-1.4,0.9-2.2,2.2-2.2
					c0.6,0,1.2,0.2,1.8,0.6l-0.5,0.7c-0.4-0.3-0.8-0.4-1.2-0.4c-0.6,0-1.1,0.3-1.3,1h3.2c0,0.1,0,0.2,0,0.4
					C75.9,1.7,75.1,2.6,73.9,2.6 M85.1,0.4c0,0.8,0.5,1.4,1.3,1.4c0.8,0,1.3-0.6,1.3-1.4S87.2-1,86.4-1C85.6-1,85.1-0.4,85.1,0.4
					 M88.6,0.4v2.1h-0.9V2c-0.3,0.4-0.7,0.6-1.4,0.6c-1.2,0-2.1-0.9-2.1-2.2c0-1.3,0.9-2.2,2.1-2.2c0.6,0,1.1,0.2,1.4,0.6v-0.5h0.9
					V0.4z M79.8,0.4c0-1.3,0.9-2.2,2.3-2.2c0.6,0,1.1,0.1,1.5,0.5l-0.4,0.8C82.9-0.9,82.5-1,82.1-1c-0.7,0-1.3,0.5-1.3,1.4
					s0.5,1.4,1.3,1.4c0.4,0,0.8-0.1,1.1-0.4l0.4,0.8c-0.5,0.4-0.9,0.5-1.5,0.5C80.7,2.6,79.8,1.7,79.8,0.4 M91.8,2.6
					c-0.5,0-0.9-0.3-1.1-0.6v0.5h-0.9v-4.3h0.9v2.4c0,0.7,0.3,1.1,0.9,1.1c0.2,0,0.4,0,0.6-0.1l0.3,0.9C92.3,2.6,92,2.6,91.8,2.6
					 M66.9,2.2c-0.4,0.3-1.1,0.4-1.7,0.4c-1.1,0-1.8-0.5-1.8-1.4c0-0.7,0.5-1.1,1.5-1.3l0.4-0.1C65.8-0.2,66-0.3,66-0.5
					c0-0.3-0.3-0.5-1-0.5c-0.6,0-1.1,0.2-1.4,0.4l-0.4-0.7c0.5-0.4,1.2-0.6,1.9-0.6c1.2,0,2,0.6,2,1.4c0,0.8-0.6,1.1-1.5,1.3
					l-0.4,0.1c-0.4,0.1-0.7,0.1-0.7,0.4c0,0.3,0.3,0.5,0.8,0.5c0.5,0,1.1-0.2,1.3-0.4L66.9,2.2z M78.9,2.6c-0.5,0-0.9-0.3-1.1-0.6
					v0.5h-0.9v-4.3h0.9v2.4c0,0.7,0.3,1.1,0.9,1.1c0.2,0,0.4,0,0.6-0.1l0.3,0.9C79.4,2.6,79.1,2.6,78.9,2.6 M71,2.5h-1.5v1.3h-0.9
					V2.5h-0.9V1.6h0.9v-2c0-1,0.4-1.6,1.5-1.6c0.4,0,0.9,0.1,1.2,0.3l-0.3,0.8C70.6-0.9,70.3-1,70-1c-0.5,0-0.6,0.3-0.6,0.7v1.9H71
					L71,2.5z M57-1.8v2.7c0,1-0.6,1.7-1.7,1.7c-0.5,0-1.1-0.2-1.5-0.8c-0.3,0.5-0.8,0.8-1.4,0.8c-0.5,0-0.9-0.1-1.3-0.6v0.5h-0.9
					v-4.3h0.9v2.4c0,0.7,0.4,1.1,1,1.1c0.6,0,0.9-0.4,0.9-1.1v-2.4h0.9v2.4c0,0.7,0.4,1.1,1,1.1c0.6,0,0.9-0.4,0.9-1.1v-2.4L57-1.8z
					"/>
			</g>
			<g transform="matrix(1.25 0 0 -1.25 1103.2 710.77)">
				<path class="st1" d="M98.7-1.1v0.6h-0.2l-0.2-0.4l-0.2,0.4H98v-0.6h0.1v0.5l0.2-0.4h0.1l0.2,0.4v-0.5H98.7z M97.7-1.1v0.5h0.2
					v0.1h-0.5v-0.1h0.2v-0.5H97.7z"/>
			</g>
			<path class="st2" d="M1203.4,715.5h-17.6v-31.7h17.6V715.5z"/>
			<g transform="matrix(1.25 0 0 -1.25 1064.5 698.59)">
				<path class="st3" d="M97.9-0.9c0,5.1,2.4,9.7,6.2,12.7c-2.7,2.2-6.2,3.4-10,3.4C85.2,15.2,78,8,78-0.9S85.2-17,94.1-17
					c3.8,0,7.2,1.3,10,3.4C100.3-10.6,97.9-6,97.9-0.9"/>
			</g>
			<g transform="matrix(1.25 0 0 -1.25 1103.8 698.59)">
				<path class="st4" d="M98.7-0.9c0-8.9-7.2-16.1-16.1-16.1c-3.8,0-7.2,1.3-10,3.4c3.7,3,6.2,7.5,6.2,12.7s-2.4,9.7-6.2,12.7
					c2.7,2.2,6.2,3.4,10,3.4C91.5,15.2,98.7,8,98.7-0.9"/>
			</g>
		</g>
	</g>
	<g id="g4158_3_" transform="matrix(4.4299631,0,0,4.4299631,-81.165783,-105.04783)">
		<polygon id="polygon9_3_" class="st5" points="50.7,52.2 44.8,52.2 48.5,29.3 54.4,29.3 		"/>
		<path id="path11_3_" class="st5" d="M72.3,29.8c-1.1-0.5-2.9-1.1-5.3-1.1c-5.9,0-10.1,3.2-10.1,7.7c0,3.2,2.9,5.1,5.3,6.1
			s3.2,1.9,3.2,2.9c0,1.6-1.9,2.1-3.5,2.1c-2.4,0-3.7-0.3-5.6-1.3l-0.8-0.3l-0.8,5.1c1.3,0.5,4,1.1,6.7,1.3c6.1,0,10.4-3.2,10.4-7.7
			c0-2.7-1.6-4.5-5.1-6.1c-2.1-1.1-3.5-1.9-3.5-2.9s1.1-1.9,3.5-1.9c1.9,0,3.5,0.5,4.5,0.8l0.5,0.3L72.3,29.8L72.3,29.8z"/>
		<path id="path13_3_" class="st5" d="M80.3,44.2c0.5-1.3,2.4-6.4,2.4-6.4s0.5-1.3,0.8-2.1l0.5,1.9c0,0,1.1,5.6,1.3,6.7
			C84.3,44.2,81.3,44.2,80.3,44.2L80.3,44.2z M87.5,29.3h-4.5c-1.3,0-2.4,0.5-3.2,1.9l-8.8,21.1h6.1c0,0,1.1-2.9,1.3-3.5
			c0.8,0,6.7,0,7.7,0c0.3,0.8,0.8,3.5,0.8,3.5h5.6L87.5,29.3L87.5,29.3L87.5,29.3z"/>
		<path id="path15_3_" class="st5" d="M39.7,29.3L33.9,45l-0.5-3.2c-1.1-3.7-4.5-7.7-8.3-9.6l5.3,20h6.4l9.3-22.9L39.7,29.3
			L39.7,29.3L39.7,29.3z"/>
		<path id="path17_3_" class="st6" d="M28.5,29.3h-9.6v0.5c7.5,1.9,12.5,6.4,14.4,12l-2.1-10.7C30.9,29.8,29.9,29.3,28.5,29.3
			L28.5,29.3z"/>
	</g>
</g>
</svg>
