<?xml version="1.0" encoding="utf-8"?>
<!-- Generator: Adobe Illustrator 24.1.2, SVG Export Plug-In . SVG Version: 6.00 Build 0)  -->
<svg version="1.1" id="Layer_1" xmlns="http://www.w3.org/2000/svg" xmlns:xlink="http://www.w3.org/1999/xlink" x="0px" y="0px"
	 viewBox="0 0 589.4 161.3" style="enable-background:new 0 0 589.4 161.3;" xml:space="preserve">
<style type="text/css">
	.st0{fill:#253B80;}
	.st1{fill:#179BD7;}
	.st2{fill:#222D65;}
</style>
<g>
	<path class="st0" d="M220.8,43.2h-32.3c-2.1,0-4,1.6-4.5,3.7L171,129.3c-0.3,1.3,0.8,2.9,2.1,2.9c0.3,0,0.3,0,0.5,0h15.5
		c2.1,0,4-1.6,4.5-3.7l3.5-22.1c0.3-2.1,2.1-3.7,4.5-3.7h10.1c21.1,0,33.3-10.1,36.5-30.7c1.3-8.8,0-16-4-20.8
		C239.8,46.2,231.5,43.2,220.8,43.2z M224.6,73.3c-1.9,11.5-10.7,11.5-19.2,11.5h-4.8l3.5-21.6c0.3-1.3,1.3-2.1,2.7-2.1h2.1
		c5.9,0,11.2,0,14.1,3.2C224.6,66.4,225.1,69.4,224.6,73.3z M317.1,72.8h-15.5c-1.3,0-2.4,1.1-2.7,2.1l-0.8,4.3l-1.1-1.6
		c-3.5-4.8-10.7-6.4-18.1-6.4c-17.1,0-31.5,12.8-34.4,30.9c-1.6,9.1,0.5,17.6,5.9,23.7c4.8,5.6,11.5,7.7,19.5,7.7
		c13.6,0,21.3-8.8,21.3-8.8l-0.8,4.3c-0.3,1.3,0.8,2.9,2.1,3.2c0.3,0,0.3,0,0.5,0h13.9c2.1,0,4-1.6,4.5-3.7l8.3-52.8
		c0.3-1.3-0.8-2.9-2.1-2.9C317.3,73.1,317.1,72.8,317.1,72.8z M295.5,102.9c-1.6,8.8-8.5,14.7-17.3,14.7c-4.5,0-8-1.3-10.4-4.3
		c-2.4-2.7-3.2-6.7-2.4-10.9c1.3-8.8,8.5-14.9,17.3-14.9c4.3,0,8,1.3,10.4,4.3C295.2,94.7,296.3,98.7,295.5,102.9z M398.9,72.8
		h-15.5c-1.6,0-2.9,0.8-3.7,1.9l-21.3,31.5L349.3,76c-0.5-1.9-2.4-3.2-4.3-3.2h-15.2c-1.6,0-2.7,1.1-2.7,2.7c0,0.3,0,0.5,0.3,0.8
		l17.1,50.1l-16,22.7c-0.8,1.3-0.5,2.9,0.5,3.7c0.5,0.3,1.1,0.5,1.6,0.5h15.5c1.3,0,2.9-0.8,3.7-1.9l51.4-74.4
		c0.8-1.3,0.5-2.9-0.8-3.7C400,73.1,399.4,72.8,398.9,72.8L398.9,72.8z"/>
	<path class="st1" d="M450.1,43.2h-32c-2.1,0-4,1.6-4.5,3.7l-13.1,82.4c-0.3,1.3,0.8,2.9,2.1,2.9c0.3,0,0.3,0,0.5,0h16.5
		c1.6,0,2.9-1.1,3.2-2.7l3.7-23.5c0.3-2.1,2.1-3.7,4.5-3.7h10.1c21.1,0,33.3-10.1,36.5-30.7c1.3-8.8,0-16-4-20.8
		C469,46.2,461,43.2,450.1,43.2z M453.8,73.3c-1.9,11.5-10.7,11.5-19.2,11.5h-4.8l3.5-21.6c0.3-1.3,1.3-2.1,2.7-2.1h2.1
		c5.9,0,11.2,0,14.1,3.2C454.1,66.4,454.6,69.4,453.8,73.3z M546.3,72.8h-15.5c-1.3,0-2.4,1.1-2.7,2.1l-0.8,4.3l-1.1-1.6
		c-3.5-4.8-10.7-6.4-18.1-6.4c-17.1,0-31.5,12.8-34.4,30.9c-1.6,9.1,0.5,17.6,5.9,23.7c4.8,5.6,11.5,7.7,19.5,7.7
		c13.6,0,21.3-8.8,21.3-8.8l-0.8,4.3c-0.3,1.3,0.8,2.9,2.1,3.2c0.3,0,0.3,0,0.5,0h13.9c2.1,0,4-1.6,4.5-3.7l8.3-52.8
		c0.3-1.3-0.8-2.9-2.1-2.9C546.6,73.1,546.3,72.8,546.3,72.8z M524.7,102.9c-1.6,8.8-8.5,14.7-17.3,14.7c-4.5,0-8-1.3-10.4-4.3
		c-2.4-2.7-3.2-6.7-2.4-10.9c1.3-8.8,8.5-14.9,17.3-14.9c4.3,0,8,1.3,10.4,4.3C524.5,94.7,525.5,98.7,524.7,102.9z M564.4,45.4
		l-13.3,84c-0.3,1.3,0.8,2.9,2.1,2.9c0.3,0,0.3,0,0.5,0h13.3c2.1,0,4-1.6,4.5-3.7l13.1-82.4c0.3-1.3-0.8-2.9-2.1-3.2
		c-0.3,0-0.3,0-0.5,0h-14.9C565.8,43.2,564.7,44.3,564.4,45.4z"/>
	<path class="st0" d="M37.7,148.5l2.4-15.7h-5.6H8.4L26.5,17.6c0-0.8,0.8-1.3,1.6-1.3h44c14.7,0,24.8,2.9,30.1,9.1
		c2.4,2.9,4,5.9,4.8,9.1c0.8,3.5,0.8,7.5,0,12.5v0.3v3.2l2.4,1.3c1.9,1.1,3.5,2.1,5.1,3.7c2.1,2.4,3.5,5.6,4,9.1
		c0.5,3.7,0.3,8.3-0.5,13.3c-1.1,5.9-2.9,10.9-5.3,14.9c-2.1,3.7-5.1,6.9-8.5,9.3c-3.2,2.4-7.2,4-11.5,5.3
		c-4.3,1.1-9.1,1.6-14.4,1.6h-3.5c-2.4,0-4.8,0.8-6.7,2.4s-3.2,3.7-3.5,6.1l-0.3,1.3l-4.3,27.5l-0.3,1.1c0,0.3-0.3,0.5-0.3,0.5
		s-0.3,0.3-0.5,0.3C59,148.5,37.7,148.5,37.7,148.5z"/>
	<path class="st1" d="M111.8,47.5c0,0.8-0.3,1.6-0.5,2.7C105.4,80,85.7,90.4,60.1,90.4H47c-3.2,0-5.6,2.1-6.1,5.3l-6.7,42.1l-1.9,12
		c-0.3,1.9,1.1,3.5,2.7,3.7c0.3,0,0.3,0,0.5,0h22.9c2.7,0,5.1-1.9,5.3-4.5l0.3-1.1l4.3-27.5l0.3-1.6c0.5-2.7,2.7-4.5,5.3-4.5h3.5
		c22.1,0,39.7-9.1,44.8-35.2c2.1-10.9,1.1-20-4.5-26.4C116.4,50.4,114.2,48.8,111.8,47.5z"/>
	<path class="st2" d="M106,45.1c-1.9-0.5-3.7-1.1-5.6-1.3c-3.7-0.5-7.5-0.8-11.5-0.8H54.2c-2.7,0-5.1,1.9-5.3,4.5l-7.5,46.6
		l-0.3,1.3c0.5-2.9,3.2-5.3,6.1-5.3h13.1c25.3,0,45.3-10.4,51.2-40.3c0.3-0.8,0.3-1.9,0.5-2.7c-1.6-0.8-3.2-1.6-4.8-2.1
		C106.8,45.4,106.2,45.1,106,45.1z"/>
	<path class="st0" d="M48.6,47.8c0.5-2.7,2.7-4.8,5.3-4.5h34.7c4,0,8,0.3,11.5,0.8c2.4,0.3,4.8,0.8,6.9,1.6c1.6,0.5,3.2,1.3,4.8,2.1
		c1.6-10.9,0-18.7-5.9-25.3C99.3,15,87.6,11.8,72.4,11.8h-44c-3.2,0-5.9,2.1-6.1,5.3L3.9,133.6c-0.3,2.1,1.1,4,3.2,4.3
		c0.3,0,0.3,0,0.5,0h27.2l6.9-43.4C41.4,94.1,48.6,47.8,48.6,47.8z"/>
</g>
</svg>
