<svg width="765" height="573" viewBox="0 0 765 573" fill="none" xmlns="http://www.w3.org/2000/svg">
<g clip-path="url(#clip0_809_5399)">
<path d="M731.173 531.568H156C147.251 531.558 138.863 528.079 132.676 521.892C126.49 515.705 123.01 507.317 123 498.568V191.568C123.01 182.819 126.49 174.431 132.676 168.245C138.863 162.058 147.251 158.578 156 158.568H731.173C739.922 158.578 748.31 162.058 754.496 168.245C760.683 174.431 764.163 182.819 764.173 191.568V498.568C764.163 507.317 760.683 515.705 754.496 521.892C748.31 528.079 739.922 531.558 731.173 531.568Z" fill="white"/>
<path d="M731.173 531.568H156C147.251 531.558 138.863 528.079 132.676 521.892C126.49 515.705 123.01 507.317 123 498.568V191.568C123.01 182.819 126.49 174.431 132.676 168.245C138.863 162.058 147.251 158.578 156 158.568H731.173C739.922 158.578 748.31 162.058 754.496 168.245C760.683 174.431 764.163 182.819 764.173 191.568V498.568C764.163 507.317 760.683 515.705 754.496 521.892C748.31 528.079 739.922 531.558 731.173 531.568ZM156 160.568C147.781 160.578 139.902 163.847 134.09 169.658C128.278 175.47 125.009 183.35 125 191.568V498.568C125.009 506.787 128.278 514.667 134.09 520.478C139.902 526.29 147.781 529.559 156 529.568H731.173C739.392 529.559 747.271 526.29 753.083 520.478C758.894 514.667 762.164 506.787 762.173 498.568V191.568C762.164 183.35 758.894 175.47 753.083 169.658C747.271 163.847 739.392 160.578 731.173 160.568H156Z" fill="#F2F2F2"/>
<path d="M731.173 507.568H156C153.614 507.566 151.326 506.617 149.639 504.929C147.952 503.242 147.003 500.954 147 498.568V191.568C147.003 189.182 147.952 186.895 149.639 185.207C151.326 183.52 153.614 182.571 156 182.568H731.173C733.559 182.571 735.847 183.52 737.534 185.207C739.221 186.895 740.17 189.182 740.173 191.568V498.568C740.17 500.954 739.221 503.242 737.534 504.929C735.847 506.617 733.559 507.566 731.173 507.568ZM156 184.568C154.144 184.57 152.365 185.309 151.053 186.621C149.74 187.933 149.002 189.712 149 191.568V498.568C149.002 500.424 149.74 502.204 151.053 503.516C152.365 504.828 154.144 505.566 156 505.568H731.173C733.029 505.566 734.808 504.828 736.12 503.516C737.433 502.204 738.171 500.424 738.173 498.568V191.568C738.171 189.712 737.433 187.933 736.12 186.621C734.808 185.309 733.029 184.57 731.173 184.568H156Z" fill="#F2F2F2"/>
<path d="M584.784 509.03L28.8135 361.653C20.359 359.401 13.1428 353.888 8.74793 346.323C4.3531 338.758 3.13857 329.758 5.37084 321.299L84.034 24.5479C86.2853 16.0934 91.7984 8.87713 99.3636 4.48229C106.929 0.08746 115.928 -1.12705 124.388 1.10522L680.359 148.483C688.813 150.734 696.03 156.247 700.424 163.812C704.819 171.378 706.034 180.377 703.802 188.837L625.138 485.588C622.887 494.042 617.374 501.258 609.809 505.653C602.244 510.048 593.244 511.263 584.784 509.03Z" fill="#F2F2F2"/>
<path d="M584.784 509.03L28.8135 361.653C20.359 359.401 13.1428 353.888 8.74793 346.323C4.3531 338.758 3.13857 329.758 5.37084 321.299L84.034 24.5479C86.2853 16.0934 91.7984 8.87713 99.3636 4.48229C106.929 0.08746 115.928 -1.12705 124.388 1.10522L680.359 148.483C688.813 150.734 696.03 156.247 700.424 163.812C704.819 171.378 706.034 180.377 703.802 188.837L625.138 485.588C622.887 494.042 617.374 501.258 609.809 505.653C602.244 510.048 593.244 511.263 584.784 509.03ZM123.875 3.03844C115.929 0.941511 107.474 2.08243 100.368 6.2109C93.261 10.3394 88.0821 17.1183 85.9672 25.0603L7.30408 321.811C5.20715 329.758 6.34808 338.212 10.4766 345.319C14.605 352.426 21.3839 357.605 29.326 359.72L585.297 507.097C593.244 509.194 601.698 508.053 608.805 503.925C615.911 499.796 621.09 493.017 623.205 485.075L701.868 188.324C703.965 180.377 702.824 171.923 698.696 164.817C694.567 157.71 687.789 152.531 679.846 150.416L123.875 3.03844Z" fill="#E6E6E6"/>
<path d="M590.934 485.832L34.9631 338.454C32.6574 337.84 30.6893 336.336 29.4907 334.273C28.2922 332.21 27.9609 329.756 28.5697 327.448L107.233 30.6975C107.847 28.3918 109.35 26.4237 111.414 25.2251C113.477 24.0265 115.931 23.6953 118.238 24.3041L674.209 171.682C676.515 172.296 678.483 173.799 679.682 175.862C680.88 177.926 681.212 180.38 680.603 182.687L601.94 479.438C601.326 481.744 599.822 483.712 597.759 484.911C595.696 486.109 593.241 486.44 590.934 485.832ZM117.726 26.2373C115.932 25.7638 114.023 26.0214 112.418 26.9536C110.813 27.8859 109.644 29.4166 109.166 31.21L30.5029 327.961C30.0294 329.755 30.287 331.664 31.2192 333.269C32.1515 334.874 33.6822 336.043 35.4756 336.521L591.447 483.898C593.241 484.372 595.15 484.114 596.755 483.182C598.359 482.25 599.529 480.719 600.006 478.926L678.67 182.175C679.143 180.38 678.885 178.471 677.953 176.867C677.021 175.262 675.49 174.092 673.697 173.615L117.726 26.2373Z" fill="white"/>
<path d="M608.173 572.568H33C24.2509 572.558 15.863 569.079 9.67639 562.892C3.48983 556.705 0.00988299 548.317 0 539.568V232.568C0.00988299 223.819 3.48983 215.431 9.67639 209.245C15.863 203.058 24.2509 199.578 33 199.568H608.173C616.922 199.578 625.31 203.058 631.496 209.245C637.683 215.431 641.163 223.819 641.173 232.568V539.568C641.163 548.317 637.683 556.705 631.496 562.892C625.31 569.079 616.922 572.558 608.173 572.568Z" fill="white"/>
<path d="M451.904 546.568H80.4739C80.0088 546.57 79.5442 546.558 79.0859 546.533L254.755 447.599C258.1 445.677 265.605 445 271.517 446.087C273.138 446.337 274.708 446.847 276.166 447.599L394.062 513.991L399.71 517.168L451.904 546.568Z" fill="#E6E6E6"/>
<path d="M569.087 546.568H247.83L310.083 517.168L314.563 515.05L395.685 476.736C401.003 474.225 413.797 474.068 420.05 476.262C420.47 476.412 420.859 476.57 421.218 476.736L569.087 546.568Z" fill="#E6E6E6"/>
<path d="M33 201.568C24.7811 201.578 16.9016 204.847 11.09 210.658C5.27837 216.47 2.00932 224.35 2 232.568V539.568C2.00932 547.787 5.27837 555.667 11.09 561.478C16.9016 567.29 24.7811 570.559 33 570.568H608.173C616.392 570.559 624.271 567.29 630.083 561.478C635.894 555.667 639.164 547.787 639.173 539.568V232.568C639.164 224.35 635.894 216.47 630.083 210.658C624.271 204.847 616.392 201.578 608.173 201.568H33Z" fill="#3F3D56"/>
<path d="M608.173 548.568H33C30.6139 548.566 28.3263 547.617 26.6391 545.929C24.9518 544.242 24.0027 541.954 24 539.568V232.568C24.0027 230.182 24.9518 227.895 26.6391 226.207C28.3263 224.52 30.6139 223.571 33 223.568H608.173C610.559 223.571 612.847 224.52 614.534 226.207C616.221 227.895 617.17 230.182 617.173 232.568V539.568C617.17 541.954 616.221 544.242 614.534 545.929C612.847 547.617 610.559 548.566 608.173 548.568ZM33 225.568C31.1441 225.57 29.3649 226.309 28.0526 227.621C26.7402 228.933 26.0021 230.712 26 232.568V539.568C26.0021 541.424 26.7402 543.204 28.0526 544.516C29.3649 545.828 31.1441 546.566 33 546.568H608.173C610.029 546.566 611.808 545.828 613.12 544.516C614.433 543.204 615.171 541.424 615.173 539.568V232.568C615.171 230.712 614.433 228.933 613.12 227.621C611.808 226.309 610.029 225.57 608.173 225.568H33Z" fill="#CCCCCC"/>
<path d="M480.016 279.761C514.205 279.761 541.919 252.046 541.919 217.858C541.919 183.67 514.205 155.955 480.016 155.955C445.828 155.955 418.113 183.67 418.113 217.858C418.113 252.046 445.828 279.761 480.016 279.761Z" fill="#FF6584"/>
<path d="M505.895 443.236C549.196 443.236 584.298 399.299 584.298 345.099C584.298 290.899 549.196 246.962 505.895 246.962C462.594 246.962 427.492 290.899 427.492 345.099C427.492 399.299 462.594 443.236 505.895 443.236Z" fill="#F2F2F2"/>
<path d="M506.113 325.365H506.328L510.205 547.65H502.02L506.113 325.365Z" fill="#CCCCCC"/>
<path d="M519.484 472.525C519.724 472.98 519.773 473.511 519.621 474.002C519.468 474.493 519.127 474.904 518.672 475.143L507.427 481.063L505.621 477.633L516.866 471.712C517.321 471.473 517.852 471.424 518.344 471.576C518.835 471.729 519.245 472.07 519.484 472.525Z" fill="#CCCCCC"/>
<path d="M280.489 443.236C323.79 443.236 358.892 399.299 358.892 345.099C358.892 290.899 323.79 246.962 280.489 246.962C237.188 246.962 202.086 290.899 202.086 345.099C202.086 399.299 237.188 443.236 280.489 443.236Z" fill="#F2F2F2"/>
<path d="M294.078 476.2C293.839 475.745 293.428 475.404 292.937 475.252C292.446 475.1 291.915 475.149 291.46 475.388L283.609 479.521L280.921 325.365H280.705L276.613 547.651H284.798L283.685 483.863L293.266 478.819C293.721 478.579 294.062 478.169 294.214 477.678C294.367 477.187 294.318 476.655 294.078 476.2Z" fill="#CCCCCC"/>
<path d="M392.919 118.937C447.786 118.937 492.382 222.319 492.382 290.996C492.382 359.673 447.903 415.346 393.037 415.346C338.17 415.346 293.691 359.673 293.691 290.996C293.691 222.319 338.052 118.937 392.919 118.937Z" fill="#8E8E8E"/>
<path d="M410.255 456.115C410.104 455.83 409.899 455.577 409.651 455.371C409.403 455.165 409.117 455.009 408.809 454.914C408.501 454.818 408.177 454.784 407.856 454.814C407.535 454.843 407.223 454.936 406.937 455.086L396.99 460.323L393.583 264.991H393.31L388.125 546.651H398.496L397.086 465.825L409.226 459.433C409.511 459.283 409.764 459.078 409.97 458.83C410.177 458.582 410.332 458.296 410.427 457.988C410.523 457.679 410.557 457.355 410.527 457.034C410.498 456.713 410.405 456.401 410.255 456.115Z" fill="#3F3D56"/>
<path d="M610.173 570.568H35C26.2509 570.558 17.863 567.079 11.6764 560.892C5.48983 554.705 2.00988 546.317 2 537.568V230.568C2.00988 221.819 5.48983 213.431 11.6764 207.245C17.863 201.058 26.2509 197.578 35 197.568H610.173C618.922 197.578 627.31 201.058 633.496 207.245C639.683 213.431 643.163 221.819 643.173 230.568V537.568C643.163 546.317 639.683 554.705 633.496 560.892C627.31 567.079 618.922 570.558 610.173 570.568Z" fill="white"/>
<path d="M453.904 544.568H82.4739C82.0088 544.57 81.5442 544.558 81.0859 544.533L256.755 445.599C260.1 443.677 267.605 443 273.517 444.087C275.138 444.337 276.708 444.847 278.166 445.599L396.062 511.991L401.71 515.168L453.904 544.568Z" fill="#E6E6E6"/>
<path d="M571.087 544.568H249.83L312.083 515.168L316.563 513.05L397.685 474.736C403.003 472.225 415.797 472.068 422.05 474.262C422.47 474.412 422.859 474.57 423.218 474.736L571.087 544.568Z" fill="#E6E6E6"/>
<path d="M610.173 570.568H35C26.2509 570.558 17.863 567.079 11.6764 560.892C5.48983 554.705 2.00988 546.317 2 537.568V230.568C2.00988 221.819 5.48983 213.431 11.6764 207.245C17.863 201.058 26.2509 197.578 35 197.568H610.173C618.922 197.578 627.31 201.058 633.496 207.245C639.683 213.431 643.163 221.819 643.173 230.568V537.568C643.163 546.317 639.683 554.705 633.496 560.892C627.31 567.079 618.922 570.558 610.173 570.568ZM35 199.568C26.7811 199.578 18.9016 202.847 13.09 208.658C7.27837 214.47 4.00932 222.35 4 230.568V537.568C4.00932 545.787 7.27837 553.667 13.09 559.478C18.9016 565.29 26.7811 568.559 35 568.568H610.173C618.392 568.559 626.271 565.29 632.083 559.478C637.894 553.667 641.164 545.787 641.173 537.568V230.568C641.164 222.35 637.894 214.47 632.083 208.658C626.271 202.847 618.392 199.578 610.173 199.568H35Z" fill="#505050"/>
<path d="M610.173 546.568H35C32.6139 546.566 30.3263 545.617 28.6391 543.929C26.9518 542.242 26.0027 539.954 26 537.568V230.568C26.0027 228.182 26.9518 225.895 28.6391 224.207C30.3263 222.52 32.6139 221.571 35 221.568H610.173C612.559 221.571 614.847 222.52 616.534 224.207C618.221 225.895 619.17 228.182 619.173 230.568V537.568C619.17 539.954 618.221 542.242 616.534 543.929C614.847 545.617 612.559 546.566 610.173 546.568ZM35 223.568C33.1441 223.57 31.3649 224.309 30.0526 225.621C28.7402 226.933 28.0021 228.712 28 230.568V537.568C28.0021 539.424 28.7402 541.204 30.0526 542.516C31.3649 543.828 33.1441 544.566 35 544.568H610.173C612.029 544.566 613.808 543.828 615.12 542.516C616.433 541.204 617.171 539.424 617.173 537.568V230.568C617.171 228.712 616.433 226.933 615.12 225.621C613.808 224.309 612.029 223.57 610.173 223.568H35Z" fill="#CCCCCC"/>
<path d="M482.016 277.761C516.205 277.761 543.919 250.046 543.919 215.858C543.919 181.67 516.205 153.955 482.016 153.955C447.828 153.955 420.113 181.67 420.113 215.858C420.113 250.046 447.828 277.761 482.016 277.761Z" fill="#B8B8B8"/>
<path d="M507.895 441.236C551.196 441.236 586.298 397.299 586.298 343.099C586.298 288.899 551.196 244.962 507.895 244.962C464.594 244.962 429.492 288.899 429.492 343.099C429.492 397.299 464.594 441.236 507.895 441.236Z" fill="#F2F2F2"/>
<path d="M508.113 323.365H508.328L512.204 545.65H504.02L508.113 323.365Z" fill="#CCCCCC"/>
<path d="M521.484 470.525C521.724 470.98 521.773 471.511 521.621 472.002C521.468 472.493 521.127 472.904 520.672 473.143L509.427 479.063L507.621 475.633L518.866 469.712C519.321 469.473 519.852 469.424 520.344 469.576C520.835 469.729 521.245 470.07 521.484 470.525Z" fill="#CCCCCC"/>
<path d="M282.489 441.236C325.79 441.236 360.892 397.299 360.892 343.099C360.892 288.899 325.79 244.962 282.489 244.962C239.188 244.962 204.086 288.899 204.086 343.099C204.086 397.299 239.188 441.236 282.489 441.236Z" fill="#F2F2F2"/>
<path d="M296.078 474.2C295.839 473.745 295.428 473.404 294.937 473.252C294.446 473.1 293.915 473.149 293.46 473.388L285.609 477.521L282.921 323.365H282.705L278.613 545.651H286.798L285.685 481.863L295.266 476.819C295.721 476.579 296.062 476.169 296.214 475.678C296.367 475.187 296.318 474.655 296.078 474.2Z" fill="#CCCCCC"/>
<path d="M394.919 116.937C449.786 116.937 494.382 220.319 494.382 288.996C494.382 357.673 449.903 413.346 395.037 413.346C340.17 413.346 295.691 357.673 295.691 288.996C295.691 220.319 340.052 116.937 394.919 116.937Z" fill="#C6C6C6"/>
<path d="M412.255 454.115C412.104 453.83 411.899 453.577 411.651 453.371C411.403 453.165 411.117 453.009 410.809 452.914C410.501 452.818 410.177 452.784 409.856 452.814C409.535 452.843 409.223 452.936 408.937 453.086L398.99 458.323L395.583 262.991H395.31L390.125 544.651H400.496L399.086 463.825L411.226 457.433C411.511 457.283 411.764 457.078 411.97 456.83C412.177 456.582 412.332 456.296 412.427 455.988C412.523 455.679 412.557 455.355 412.527 455.034C412.498 454.713 412.405 454.401 412.255 454.115Z" fill="#3F3D56"/>
</g>
<defs>
<clipPath id="clip0_809_5399">
<rect width="764.173" height="572.568" fill="white"/>
</clipPath>
</defs>
</svg>
